<svg width="17" height="15" viewBox="0 0 17 15" fill="none" xmlns="http://www.w3.org/2000/svg">
<path d="M14.9674 3.06521H13.1935L12.2141 1.58695C11.8446 1.03261 11.1978 0.699997 10.5326 0.699997H6.46739C5.80217 0.699997 5.15543 1.03261 4.78587 1.58695L3.80652 3.06521H2.03261C0.905435 3.06521 0 3.97065 0 5.09782V12.2674C0 13.3946 0.905435 14.3 2.03261 14.3H14.9674C16.0946 14.3 17 13.3946 17 12.2674V5.09782C17 3.97065 16.0946 3.06521 14.9674 3.06521ZM8.5 12.637C5.96848 12.637 3.91739 10.5859 3.91739 8.05435C3.91739 5.52282 5.96848 3.49022 8.5 3.49022C11.0315 3.49022 13.0826 5.5413 13.0826 8.07282C13.0826 10.5859 11.0315 12.637 8.5 12.637ZM14.7087 5.92935C14.6902 5.92935 14.6717 5.92935 14.6348 5.92935H13.8957C13.563 5.91087 13.3043 5.63369 13.3228 5.30108C13.3413 4.98695 13.5815 4.74674 13.8957 4.72826H14.6348C14.9674 4.70978 15.2446 4.96848 15.263 5.30108C15.2815 5.63369 15.0413 5.91087 14.7087 5.92935Z" fill="#0B1F2A"/>
<path d="M8.50019 5.52283C7.09585 5.52283 5.9502 6.66848 5.9502 8.07283C5.9502 9.47718 7.09585 10.6044 8.50019 10.6044C9.90454 10.6044 11.0502 9.4587 11.0502 8.05435C11.0502 6.65 9.90454 5.52283 8.50019 5.52283Z" fill="#0B1F2A"/>
</svg>
