<svg width="15" height="15" viewBox="0 0 15 15" fill="none" xmlns="http://www.w3.org/2000/svg">
<path d="M9.00408 3.94383C8.87874 4.07169 8.80854 4.2436 8.80854 4.42265C8.80854 4.6017 8.87874 4.77361 9.00408 4.90147L10.0985 5.99592C10.2264 6.12126 10.3983 6.19146 10.5773 6.19146C10.7564 6.19146 10.9283 6.12126 11.0562 5.99592L13.635 3.41712C13.9789 4.17721 14.0831 5.02408 13.9335 5.84485C13.784 6.66563 13.3878 7.42134 12.7979 8.01127C12.208 8.60121 11.4523 8.99734 10.6315 9.14689C9.81071 9.29644 8.96385 9.19229 8.20376 8.84834L3.4771 13.575C3.20497 13.8471 2.83589 14 2.45105 14C2.06621 14 1.69713 13.8471 1.425 13.575C1.15288 13.3029 1 12.9338 1 12.5489C1 12.1641 1.15288 11.795 1.425 11.5229L6.15166 6.79624C5.80771 6.03615 5.70356 5.18929 5.85311 4.36851C6.00266 3.54774 6.39879 2.79202 6.98873 2.20209C7.57866 1.61216 8.33437 1.21602 9.15515 1.06648C9.97592 0.916929 10.8228 1.02107 11.5829 1.36503L9.01092 3.93699L9.00408 3.94383Z" stroke="url(#paint0_linear)" stroke-width="1.4" stroke-linecap="round" stroke-linejoin="round"/>
<defs>
<linearGradient id="paint0_linear" x1="19.0753" y1="16.3756" x2="-20.4696" y2="2.52766" gradientUnits="userSpaceOnUse">
<stop stop-color="#B57E10"/>
<stop offset="0.1507" stop-color="#B57E10"/>
<stop offset="0.4638" stop-color="#E5C35C"/>
<stop offset="0.6129" stop-color="#F9DF7B"/>
<stop offset="0.7204" stop-color="#FFF3A6"/>
<stop offset="0.8387" stop-color="#F9DF7B"/>
<stop offset="1" stop-color="#B57E10"/>
</linearGradient>
</defs>
</svg>
