<svg width="41" height="52" viewBox="0 0 41 52" fill="none" xmlns="http://www.w3.org/2000/svg">
<path fill-rule="evenodd" clip-rule="evenodd" d="M31.3786 38.899C26.2553 39.4836 20.0343 37.184 15.2438 39.4836C21.365 34.8064 37.2337 42.0171 39.8285 28.0244C33.5077 35.3131 23.5274 31.8052 15.0109 36.4824C5.16366 41.9002 10.3534 52.7748 20.6664 51.9563C18.7369 51.6055 13.7134 48.3704 14.8778 45.4081C17.0402 39.7565 28.0851 44.7066 31.3786 38.899ZM40.8931 17.2668C38.265 26.3094 27.3199 27.2449 21.7642 29.5445C24.8914 27.3618 33.175 25.0622 37.0673 19.9172C39.1965 17.0719 40.1945 12.4726 37.8325 8.38004C37.1006 15.1231 31.4451 21.4763 25.1908 24.5165C32.3433 20.268 38.8305 5.53473 30.7465 0C31.5449 10.5627 23.6937 23.737 10.7859 34.2218C10.054 34.8064 8.75656 36.0537 8.32408 36.9891C8.45715 35.547 10.5197 33.6761 11.1186 33.0914C7.22625 33.871 2.33591 31.0646 1.50422 35.3131C2.16957 35.3521 2.83492 35.6249 3.40047 36.0926C2.30264 35.5859 -0.358768 35.3911 0.0404434 37.6127C0.273315 36.9891 1.07174 36.9112 1.90343 37.0671C6.29476 38.0415 5.66267 41.6274 8.35735 43.966C8.55696 40.0683 11.551 37.223 14.5784 35.469C23.6605 30.2851 42.5898 34.0269 40.8931 17.2668Z" fill="url(#paint0_linear)"/>
<defs>
<linearGradient id="paint0_linear" x1="-16.0066" y1="61.5025" x2="114.088" y2="25.5825" gradientUnits="userSpaceOnUse">
<stop stop-color="#B57E10"/>
<stop offset="0.1507" stop-color="#B57E10"/>
<stop offset="0.4638" stop-color="#E5C35C"/>
<stop offset="0.6129" stop-color="#F9DF7B"/>
<stop offset="0.7204" stop-color="#FFF3A6"/>
<stop offset="0.8387" stop-color="#F9DF7B"/>
<stop offset="1" stop-color="#B57E10"/>
</linearGradient>
</defs>
</svg>
