<svg width="21" height="18" viewBox="0 0 21 18" fill="none" xmlns="http://www.w3.org/2000/svg">
<path d="M13.6975 12.5757V17.027C13.6975 17.5622 13.3322 18 12.83 18H0.913165C0.410924 18 0 17.5622 0 17.027V0.972973C0 0.437838 0.410924 0 0.913165 0H12.83C13.3322 0 13.6975 0.437838 13.6975 0.972973V5.42434C13.6975 5.95947 13.2865 6.39731 12.7843 6.39731C12.2821 6.39731 11.8711 5.95947 11.8711 5.42434V1.94595H1.82633V16.0541H11.8711V12.5757C11.8711 12.0405 12.2821 11.6027 12.7843 11.6027C13.2865 11.6027 13.6975 12.0405 13.6975 12.5757ZM20.7289 8.27027L17.1447 4.42702C16.7794 4.03783 16.2087 4.03783 15.8434 4.42702C15.4781 4.8162 15.4781 5.4243 15.8434 5.81349L17.8752 8.00268L6.80309 8.02703C6.30085 8.02703 5.88992 8.46486 5.88992 9C5.88992 9.53514 6.30085 9.97297 6.80309 9.97297L17.8752 9.94863L15.8434 12.1378C15.4781 12.527 15.5009 13.1352 15.8434 13.5243C16.026 13.7189 16.2543 13.8162 16.4826 13.8162C16.7109 13.8162 16.962 13.7189 17.1218 13.5243L20.706 9.68109C21.0941 9.26758 21.0941 8.65946 20.7289 8.27027Z" fill="#828282"/>
</svg>
