<svg width="17" height="15" viewBox="0 0 17 15" fill="none" xmlns="http://www.w3.org/2000/svg">
<path d="M13.1607 7.33439C14.698 5.99355 14.8239 3.69752 13.4419 2.20603C12.1743 0.838092 10.0527 0.605701 8.50265 1.66505C6.81297 0.508129 4.47653 0.899181 3.28405 2.53846C2.18985 4.04264 2.42841 6.10315 3.8393 7.33435C2.08624 8.2309 0.992101 9.99845 1.00004 11.921V13.4803C1.00004 13.7673 1.23989 14 1.53576 14H15.4642C15.7601 14 16 13.7673 16 13.4803V11.921C16.0079 9.99845 14.9137 8.2309 13.1607 7.33439ZM10.6428 2.04603C12.12 2.04444 13.3189 3.20499 13.3206 4.63819C13.3218 5.66033 12.7044 6.58791 11.7437 7.00744C11.7024 7.02562 11.6612 7.04225 11.6194 7.05942C11.4872 7.11116 11.3509 7.15233 11.2117 7.18261C11.185 7.18833 11.1582 7.19144 11.1308 7.19664C10.9754 7.22554 10.8177 7.24102 10.6594 7.2429C10.5882 7.2429 10.5164 7.2377 10.4451 7.23148C10.4183 7.23148 10.3915 7.23148 10.3648 7.22628C10.0603 7.1915 9.76409 7.10681 9.48887 6.97577C9.4787 6.97108 9.4669 6.97159 9.45673 6.96745C9.40315 6.94251 9.3496 6.92068 9.30192 6.8926C9.30622 6.88739 9.30889 6.8817 9.31316 6.87649C9.55881 6.57025 9.75248 6.22795 9.88689 5.86248L9.90349 5.81881C9.96461 5.64425 10.0121 5.46549 10.0455 5.28399C10.0503 5.25749 10.054 5.232 10.0583 5.20344C10.0893 5.01868 10.1056 4.83191 10.1071 4.64471C10.1055 4.45788 10.0893 4.27144 10.0583 4.08701C10.054 4.06 10.0503 4.03503 10.0455 4.00647C10.0121 3.82499 9.96461 3.6462 9.90349 3.47164L9.88689 3.42797C9.75248 3.0625 9.55878 2.7202 9.31316 2.41396C9.30886 2.40876 9.30619 2.40306 9.30192 2.39785C9.70891 2.16751 10.1716 2.04606 10.6428 2.04603ZM3.67859 4.64474C3.67479 3.21325 4.8678 2.0498 6.34329 2.04612C7.03492 2.04438 7.70031 2.30296 8.19946 2.76744C8.23054 2.79655 8.26108 2.82563 8.29106 2.85578C8.38306 2.94931 8.4679 3.04919 8.545 3.15462C8.56857 3.18684 8.59001 3.22116 8.61195 3.25442C8.68681 3.36621 8.75254 3.48352 8.80854 3.60524C8.82194 3.63487 8.83212 3.66502 8.84389 3.69462C8.90036 3.82926 8.9448 3.96837 8.97676 4.1104C8.98052 4.126 8.98159 4.14159 8.98479 4.1577C9.05266 4.48041 9.05266 4.81312 8.98479 5.13583C8.98159 5.15194 8.98049 5.16753 8.97676 5.18313C8.94483 5.32516 8.90039 5.46427 8.84389 5.59891C8.83212 5.62854 8.82191 5.65869 8.80854 5.68829C8.75248 5.80983 8.68675 5.92695 8.61195 6.03859C8.58998 6.07185 8.56857 6.10617 8.545 6.13839C8.46794 6.24385 8.38306 6.3437 8.29106 6.43723C8.26105 6.46738 8.23051 6.49649 8.19946 6.52557C7.98256 6.72611 7.73248 6.88986 7.45965 7.00996C7.41627 7.02918 7.37232 7.04687 7.32788 7.06195C7.19874 7.11168 7.06587 7.15163 6.93039 7.18148C6.89665 7.18876 6.86181 7.1929 6.82753 7.19862C6.68207 7.22491 6.53457 7.23931 6.38664 7.24178H6.32772C6.17978 7.23934 6.03228 7.22491 5.88682 7.19862C5.85255 7.1929 5.81771 7.18876 5.78396 7.18148C5.64849 7.15163 5.51558 7.11168 5.38648 7.06195C5.342 7.0448 5.29809 7.02714 5.25471 7.00996C4.29627 6.59013 3.67981 5.66496 3.67859 4.64474ZM10.6428 12.9605H2.07145V11.9211C2.06361 10.1599 3.20737 8.58739 4.92035 8.00433C5.83993 8.37577 6.8743 8.37577 7.79391 8.00433C7.97277 8.06773 8.14707 8.14256 8.3157 8.22835C8.42713 8.28395 8.52999 8.34736 8.63712 8.41128C8.70678 8.45337 8.77747 8.49445 8.84445 8.54071C8.94785 8.61191 9.04534 8.68935 9.14124 8.76886C9.20285 8.82085 9.26391 8.8728 9.32176 8.92479C9.41015 9.00585 9.49317 9.09161 9.573 9.17947C9.63031 9.24287 9.68603 9.30731 9.73908 9.37385C9.80926 9.46116 9.87622 9.55057 9.93837 9.64254C9.99195 9.7205 10.0396 9.80157 10.0867 9.88267C10.1403 9.97205 10.1896 10.0615 10.2346 10.1545C10.2796 10.2475 10.3192 10.3494 10.3578 10.4487C10.3915 10.5349 10.4274 10.6207 10.4553 10.7085C10.4928 10.8291 10.519 10.9538 10.5453 11.0786C10.5614 11.1524 10.5823 11.2246 10.594 11.2995C10.6258 11.5052 10.6421 11.713 10.6428 11.9211V12.9605H10.6428ZM14.9285 12.9605H11.7142V11.9211C11.7142 11.7584 11.7046 11.5973 11.6896 11.4377C11.6853 11.3909 11.6778 11.3447 11.6725 11.2979C11.658 11.183 11.6414 11.0692 11.6189 10.9564C11.6093 10.9083 11.5991 10.8599 11.5883 10.8114C11.5626 10.6957 11.5328 10.581 11.4989 10.4673C11.4876 10.4299 11.4774 10.392 11.4657 10.3551C11.3157 9.88985 11.0983 9.44767 10.8202 9.04173L10.7993 9.0121C10.7071 8.87938 10.6087 8.75102 10.5041 8.62698L10.5003 8.62229C10.3932 8.49341 10.2769 8.36813 10.1548 8.24963C10.1618 8.24963 10.1693 8.24963 10.1768 8.24963C10.3279 8.26891 10.4802 8.27932 10.6327 8.28082H10.6621C10.8033 8.27963 10.9442 8.27077 11.0843 8.25432C11.1282 8.24911 11.1716 8.24132 11.2155 8.23456C11.3295 8.2176 11.442 8.19558 11.553 8.16857C11.5846 8.16077 11.6168 8.15349 11.6489 8.14466C11.7947 8.1062 11.9378 8.05896 12.0775 8.00329C13.7917 8.58578 14.9365 10.1589 14.9285 11.9211V12.9605H14.9285Z" fill="url(#paint0_linear)" stroke="url(#paint1_linear)" stroke-width="0.3"/>
<defs>
<linearGradient id="paint0_linear" x1="21.8561" y1="16.3756" x2="-22.1787" y2="-1.417" gradientUnits="userSpaceOnUse">
<stop stop-color="#B57E10"/>
<stop offset="0.1507" stop-color="#B57E10"/>
<stop offset="0.4638" stop-color="#E5C35C"/>
<stop offset="0.6129" stop-color="#F9DF7B"/>
<stop offset="0.7204" stop-color="#FFF3A6"/>
<stop offset="0.8387" stop-color="#F9DF7B"/>
<stop offset="1" stop-color="#B57E10"/>
</linearGradient>
<linearGradient id="paint1_linear" x1="21.8561" y1="16.3756" x2="-22.1787" y2="-1.417" gradientUnits="userSpaceOnUse">
<stop stop-color="#B57E10"/>
<stop offset="0.1507" stop-color="#B57E10"/>
<stop offset="0.4638" stop-color="#E5C35C"/>
<stop offset="0.6129" stop-color="#F9DF7B"/>
<stop offset="0.7204" stop-color="#FFF3A6"/>
<stop offset="0.8387" stop-color="#F9DF7B"/>
<stop offset="1" stop-color="#B57E10"/>
</linearGradient>
</defs>
</svg>
