<svg width="18" height="19" viewBox="0 0 18 19" fill="none" xmlns="http://www.w3.org/2000/svg">
<g opacity="0.5" clip-path="url(#clip0)">
<path d="M5.51383 5.96042C5.57634 6.26394 5.67219 6.46042 5.78401 6.58286C6.05003 8.5374 7.71209 10.2031 9.04701 10.1334C10.7452 10.0455 11.9488 8.11365 12.219 6.58286C12.3309 6.46116 12.4385 6.20089 12.5031 5.89517C12.5753 5.544 12.6531 5.01467 12.4531 4.73462C12.4413 4.71995 12.3649 4.64591 12.3517 4.63344C12.5427 3.90617 12.9622 2.60852 11.9176 1.44209C11.3515 0.81013 10.5653 0.492681 9.85478 0.241948C7.75723 -0.497788 6.27645 0.539602 5.59301 2.26468C5.5437 2.38711 5.2249 3.16204 5.61107 4.63344C5.57356 4.65984 5.53953 4.69356 5.51105 4.73462C5.31033 5.01394 5.4409 5.60925 5.51383 5.96042Z" fill="white"/>
<path d="M16.3617 16.7097C16.3034 15.3644 16.2312 13.2324 15.1178 11.4883C15.1178 11.4883 14.8004 11.0315 14.0475 10.728C14.0475 10.728 12.4125 10.2024 11.6596 9.63417L11.3158 9.8827L11.354 12.2419L9.28981 18.0587C9.24467 18.1862 9.12937 18.2705 9.00088 18.2705C8.87239 18.2705 8.75709 18.1862 8.71195 18.0587L6.64844 12.2419C6.64844 12.2419 6.68664 9.89004 6.68594 9.8827C6.6908 9.9025 6.34144 9.63417 6.34144 9.63417C5.58994 10.2024 3.95427 10.728 3.95427 10.728C3.20138 11.0315 2.88397 11.4883 2.88397 11.4883C1.7713 13.2324 1.69767 15.3644 1.63933 16.7097C1.59905 17.6393 1.7838 17.9861 2.01578 18.0851C4.89539 19.305 13.1043 19.305 15.9846 18.0851C16.218 17.9868 16.4013 17.6393 16.3617 16.7097Z" fill="white"/>
<path d="M9.07426 10.8849L8.98119 10.8871C8.68115 10.8871 8.37832 10.8255 8.08105 10.717L8.89924 12.0389L8.16509 12.7867L8.92077 17.6305C8.92702 17.6723 8.96105 17.7024 9.00134 17.7024C9.04093 17.7024 9.07496 17.6723 9.0819 17.6305L9.83758 12.7867L9.10274 12.0389L9.90911 10.7368C9.64588 10.8182 9.36736 10.8725 9.07426 10.8849Z" fill="white"/>
</g>
<defs>
<clipPath id="clip0">
<rect width="18" height="19" fill="white"/>
</clipPath>
</defs>
</svg>
