<svg width="21" height="25" viewBox="0 0 21 25" fill="none" xmlns="http://www.w3.org/2000/svg">
<path d="M19.6696 9.98161L3.47025 0.384842C1.7519 -0.636286 0 0.480468 0 2.48863V22.5229C0 24.2242 1.06408 25 2.05307 25C2.51881 25 2.99333 24.847 3.46466 24.5485L19.7367 14.1809C20.5547 13.6578 21.0141 12.8837 20.9997 12.0563C20.9861 11.2281 20.502 10.4714 19.6696 9.98161ZM18.6462 12.329L2.37502 22.6941C2.26557 22.764 2.17929 22.7989 2.12018 22.8164C2.1042 22.7548 2.08822 22.6601 2.08822 22.5229V2.48946C2.08822 2.28324 2.12417 2.1793 2.12417 2.15352C2.18808 2.15768 2.29992 2.19177 2.44052 2.27493L18.6374 11.8717C18.8372 11.9906 18.8963 12.0937 18.9154 12.0713C18.9051 12.0995 18.8372 12.2051 18.6462 12.329Z" fill="white"/>
</svg>
