<svg width="18" height="18" viewBox="0 0 18 18" fill="none" xmlns="http://www.w3.org/2000/svg">
<path fill-rule="evenodd" clip-rule="evenodd" d="M9.56675 2.23237C10.394 1.43267 11.5019 0.990163 12.652 1.00017C13.802 1.01017 14.9021 1.47188 15.7153 2.28585C16.5286 3.09982 16.9898 4.20092 16.9998 5.35201C17.0098 6.50309 16.5677 7.61205 15.7688 8.44004L15.7599 8.44911L13.5669 10.6441C13.1222 11.0893 12.5871 11.4336 11.9978 11.6536C11.4085 11.8737 10.7789 11.9643 10.1515 11.9193C9.52417 11.8743 8.91383 11.6948 8.36189 11.393C7.80994 11.0912 7.3293 10.6741 6.95257 10.17C6.71075 9.84637 6.77679 9.38783 7.10008 9.14578C7.42338 8.90373 7.8815 8.96983 8.12333 9.29342C8.37448 9.62949 8.69491 9.90757 9.06287 10.1088C9.43083 10.31 9.83773 10.4297 10.256 10.4596C10.6742 10.4896 11.094 10.4292 11.4868 10.2825C11.8797 10.1359 12.2364 9.90633 12.5329 9.60952L14.7213 7.41909C15.2513 6.86756 15.5445 6.13011 15.5378 5.36472C15.5312 4.59733 15.2237 3.86326 14.6815 3.32062C14.1394 2.77797 13.406 2.47016 12.6393 2.4635C11.8742 2.45684 11.1372 2.75055 10.5861 3.28149L9.33265 4.52875C9.04633 4.81366 8.58348 4.81231 8.29883 4.52573C8.01418 4.23916 8.01553 3.77588 8.30184 3.49097L9.5592 2.23977L9.56675 2.23237Z" fill="#828282"/>
<path fill-rule="evenodd" clip-rule="evenodd" d="M6.00218 6.34636C6.59147 6.12634 7.22114 6.03574 7.84848 6.08071C8.47582 6.12568 9.08617 6.30517 9.63811 6.607C10.1901 6.90883 10.6707 7.32594 11.0474 7.83004C11.2893 8.15363 11.2232 8.61217 10.8999 8.85422C10.5766 9.09627 10.1185 9.03017 9.87667 8.70658C9.62552 8.37051 9.30509 8.09243 8.93713 7.89121C8.56916 7.68999 8.16227 7.57034 7.74404 7.54036C7.32581 7.51038 6.90603 7.57077 6.51317 7.71746C6.12032 7.86414 5.76357 8.09367 5.46713 8.39048L3.27871 10.5809C2.74869 11.1324 2.45551 11.8699 2.46216 12.6353C2.46882 13.4027 2.77634 14.1367 3.31849 14.6794C3.86065 15.222 4.59404 15.5298 5.36073 15.5365C6.12542 15.5432 6.86219 15.2497 7.41321 14.7192L8.65853 13.4728C8.94402 13.187 9.40687 13.187 9.69236 13.4728C9.97784 13.7585 9.97784 14.2218 9.69236 14.5075L8.44231 15.7587L8.43324 15.7676C7.60601 16.5673 6.49806 17.0098 5.34803 16.9998C4.198 16.9898 3.0979 16.5281 2.28467 15.7142C1.47145 14.9002 1.01016 13.7991 1.00017 12.648C0.990172 11.4969 1.43227 10.3879 2.23124 9.55996L2.24015 9.55089L4.43312 7.3559C4.43309 7.35593 4.43316 7.35587 4.43312 7.3559C4.87776 6.91073 5.41294 6.56637 6.00218 6.34636Z" fill="#828282"/>
<path d="M4.43312 7.3559L2.24015 9.55089L2.23124 9.55996C1.43227 10.3879 0.990172 11.4969 1.00017 12.648C1.01016 13.7991 1.47145 14.9002 2.28467 15.7142C3.0979 16.5281 4.198 16.9898 5.34803 16.9998C6.49806 17.0098 7.60601 16.5673 8.43324 15.7676L8.44231 15.7587L9.69236 14.5075C9.97784 14.2218 9.97784 13.7585 9.69236 13.4728C9.40687 13.187 8.94402 13.187 8.65853 13.4728L7.41321 14.7192C6.86219 15.2497 6.12542 15.5432 5.36073 15.5365C4.59404 15.5298 3.86065 15.222 3.31849 14.6794C2.77634 14.1367 2.46882 13.4027 2.46216 12.6353C2.45551 11.8699 2.74869 11.1324 3.27871 10.5809L5.46713 8.39048C5.76357 8.09367 6.12032 7.86414 6.51317 7.71746C6.90603 7.57077 7.32581 7.51038 7.74404 7.54036C8.16227 7.57034 8.56916 7.68999 8.93713 7.89121C9.30509 8.09243 9.62552 8.37051 9.87667 8.70658C10.1185 9.03017 10.5766 9.09627 10.8999 8.85422C11.2232 8.61217 11.2893 8.15363 11.0474 7.83004C10.6707 7.32594 10.1901 6.90883 9.63811 6.607C9.08617 6.30517 8.47582 6.12568 7.84848 6.08071C7.22114 6.03574 6.59147 6.12634 6.00218 6.34636C5.41294 6.56637 4.87776 6.91073 4.43312 7.3559ZM4.43312 7.3559C4.43316 7.35587 4.43309 7.35593 4.43312 7.3559ZM9.56675 2.23237C10.394 1.43267 11.5019 0.990163 12.652 1.00017C13.802 1.01017 14.9021 1.47188 15.7153 2.28585C16.5286 3.09982 16.9898 4.20092 16.9998 5.35201C17.0098 6.50309 16.5677 7.61205 15.7688 8.44004L15.7599 8.44911L13.5669 10.6441C13.1222 11.0893 12.5871 11.4336 11.9978 11.6536C11.4085 11.8737 10.7789 11.9643 10.1515 11.9193C9.52418 11.8743 8.91383 11.6948 8.36189 11.393C7.80994 11.0912 7.3293 10.6741 6.95257 10.17C6.71075 9.84637 6.77679 9.38783 7.10008 9.14578C7.42338 8.90373 7.8815 8.96983 8.12333 9.29342C8.37448 9.62949 8.69491 9.90757 9.06287 10.1088C9.43083 10.31 9.83773 10.4297 10.256 10.4596C10.6742 10.4896 11.094 10.4292 11.4868 10.2825C11.8797 10.1359 12.2364 9.90633 12.5329 9.60952L14.7213 7.41909C15.2513 6.86756 15.5445 6.13011 15.5378 5.36472C15.5312 4.59733 15.2237 3.86326 14.6815 3.32062C14.1394 2.77797 13.406 2.47016 12.6393 2.4635C11.8742 2.45684 11.1372 2.75055 10.5861 3.28149L9.33265 4.52875C9.04633 4.81366 8.58348 4.81231 8.29883 4.52573C8.01418 4.23916 8.01553 3.77588 8.30184 3.49097L9.5592 2.23977L9.56675 2.23237Z" stroke="#828282" stroke-width="0.4" stroke-linecap="round" stroke-linejoin="round"/>
</svg>
