<svg width="14" height="15" viewBox="0 0 14 15" fill="none" xmlns="http://www.w3.org/2000/svg">
<path d="M4.54545 5.68V3.34C4.54545 2.71939 4.80406 2.12421 5.26437 1.68537C5.72469 1.24653 6.34901 1 7 1C7.65099 1 8.27531 1.24653 8.73563 1.68537C9.19594 2.12421 9.45455 2.71939 9.45455 3.34V5.68M1.54545 5.68H12.4545C12.7558 5.68 13 5.91281 13 6.2V13.48C13 13.7672 12.7558 14 12.4545 14H1.54545C1.24421 14 1 13.7672 1 13.48V6.2C1 5.91281 1.24421 5.68 1.54545 5.68Z" stroke="url(#paint0_linear)" stroke-width="1.5" stroke-linecap="round" stroke-linejoin="round"/>
<defs>
<linearGradient id="paint0_linear" x1="17.6849" y1="16.3756" x2="-19.4176" y2="4.38238" gradientUnits="userSpaceOnUse">
<stop stop-color="#B57E10"/>
<stop offset="0.1507" stop-color="#B57E10"/>
<stop offset="0.4638" stop-color="#E5C35C"/>
<stop offset="0.6129" stop-color="#F9DF7B"/>
<stop offset="0.7204" stop-color="#FFF3A6"/>
<stop offset="0.8387" stop-color="#F9DF7B"/>
<stop offset="1" stop-color="#B57E10"/>
</linearGradient>
</defs>
</svg>
