<svg width="50" height="50" viewBox="0 0 50 50" fill="none" xmlns="http://www.w3.org/2000/svg">
<circle cx="25" cy="25" r="24.5" stroke="white"/>
<circle cx="25" cy="25" r="21" fill="#0B1F2A"/>
<g opacity="0.5" clip-path="url(#clip0)">
<path d="M20.3511 19.5289C20.4345 19.9123 20.5623 20.1605 20.7114 20.3152C21.066 22.7841 23.2821 24.8881 25.062 24.8001C27.3263 24.689 28.9311 22.2488 29.2914 20.3152C29.4405 20.1614 29.584 19.8327 29.6701 19.4465C29.7665 19.0029 29.8702 18.3343 29.6035 17.9806C29.5877 17.962 29.4859 17.8685 29.4683 17.8528C29.7229 16.9341 30.2823 15.295 28.8895 13.8216C28.1347 13.0233 27.0864 12.6223 26.1391 12.3056C23.3423 11.3712 21.3679 12.6816 20.4567 14.8606C20.3909 15.0153 19.9659 15.9941 20.4808 17.8528C20.4308 17.8861 20.3854 17.9287 20.3474 17.9806C20.0798 18.3334 20.2539 19.0854 20.3511 19.5289Z" fill="white"/>
<path d="M34.8154 33.107C34.7376 31.4077 34.6413 28.7146 33.1568 26.5115C33.1568 26.5115 32.7336 25.9346 31.7297 25.5512C31.7297 25.5512 29.5497 24.8872 28.5459 24.1695L28.0875 24.4834L28.1384 27.4635L25.3861 34.811C25.3259 34.9721 25.1722 35.0786 25.0009 35.0786C24.8296 35.0786 24.6758 34.9721 24.6156 34.811L21.8643 27.4635C21.8643 27.4635 21.9152 24.4927 21.9143 24.4834C21.9208 24.5084 21.455 24.1695 21.455 24.1695C20.453 24.8872 18.2721 25.5512 18.2721 25.5512C17.2682 25.9346 16.845 26.5115 16.845 26.5115C15.3614 28.7146 15.2633 31.4077 15.1855 33.107C15.1318 34.2812 15.3781 34.7193 15.6874 34.8443C19.5269 36.3853 30.4721 36.3853 34.3125 34.8443C34.6237 34.7202 34.8681 34.2812 34.8154 33.107Z" fill="white"/>
<path d="M25.0991 25.7494L24.975 25.7521C24.5749 25.7521 24.1711 25.6744 23.7748 25.5373L24.8657 27.207L23.8868 28.1516L24.8944 34.2701C24.9027 34.3229 24.9481 34.3609 25.0018 34.3609C25.0546 34.3609 25.1 34.3229 25.1092 34.2701L26.1168 28.1516L25.137 27.207L26.2122 25.5623C25.8612 25.6651 25.4899 25.7336 25.0991 25.7494Z" fill="white"/>
</g>
<defs>
<clipPath id="clip0">
<rect width="24" height="24" fill="white" transform="translate(13 12)"/>
</clipPath>
</defs>
</svg>
